<svg id="Group_47" data-name="Group 47" xmlns="http://www.w3.org/2000/svg" xmlns:xlink="http://www.w3.org/1999/xlink" width="66.023" height="49.682" viewBox="0 0 66.023 49.682">
  <defs>
    <clipPath id="clip-path">
      <rect id="Rectangle_24" data-name="Rectangle 24" width="66.023" height="49.682" fill="#0a1523"/>
    </clipPath>
  </defs>
  <g id="Group_81" data-name="Group 81" clip-path="url(#clip-path)">
    <path id="Path_42" data-name="Path 42" d="M36.19,48.767V0H23.883V14.456a23.68,23.68,0,0,0-2.37-.549,15.6,15.6,0,0,0-3.1-.274,19.155,19.155,0,0,0-9.663,2.379,17.667,17.667,0,0,0-6.472,6.5A18.622,18.622,0,0,0,0,31.84a23.013,23.013,0,0,0,1.458,8.418,15.309,15.309,0,0,0,4.194,6.222,13.5,13.5,0,0,0,4.193,2.379,14.777,14.777,0,0,0,5.013.824,12.741,12.741,0,0,0,5.013-1.1A10.538,10.538,0,0,0,24.248,45.2l.638,3.477h11.3ZM22.516,37.513A4.956,4.956,0,0,1,18.5,39.16a5.822,5.822,0,0,1-4.558-1.83A7.8,7.8,0,0,1,12.4,32.389a8.684,8.684,0,0,1,2.1-6.222,7.336,7.336,0,0,1,5.378-2.1,11.193,11.193,0,0,1,4.011.64v8.235a6.846,6.846,0,0,1-1.367,4.574" fill="#0a1523"/>
    <rect id="Rectangle_23" data-name="Rectangle 23" width="25.497" height="9.403" transform="translate(40.527 38)" fill="#0a1523"/>
  </g>
</svg>
